<svg width="228" height="32" viewBox="0 0 228 32" fill="none" xmlns="http://www.w3.org/2000/svg">
<path d="M11.79 26H15.42V5.15H10.14C4.83 5.15 2.04 7.88 2.04 11.9C2.04 15.11 3.57 17 6.3 18.95L1.56 26H5.49L10.77 18.11L8.94 16.88C6.72 15.38 5.64 14.21 5.64 11.69C5.64 9.47 7.2 7.97 10.17 7.97H11.79V26ZM81.78 26.3C83.43 26.3 84.6 26 85.47 25.37V22.46C84.57 23.09 83.49 23.48 81.99 23.48C79.44 23.48 78.39 21.5 78.39 18.38C78.39 15.11 79.68 13.43 82.02 13.43C83.4 13.43 84.75 13.91 85.47 14.36V11.33C84.72 10.91 83.4 10.61 81.63 10.61C77.07 10.61 74.7 13.88 74.7 18.47C74.7 23.51 77.01 26.3 81.78 26.3ZM59.46 24.98V22.07C58.35 22.82 56.49 23.48 54.75 23.48C52.14 23.48 51.15 22.25 51 19.73H59.61V17.84C59.61 12.59 57.3 10.61 53.73 10.61C49.38 10.61 47.31 13.94 47.31 18.5C47.31 23.75 49.89 26.3 54.45 26.3C56.73 26.3 58.41 25.7 59.46 24.98ZM70.86 26H74.91L69.18 17.99L74.22 10.91H70.62L65.58 17.99V10.91H62.01V26H65.58V18.71L70.86 26ZM46.44 23.18H44.85V10.91H34.44V12.2C34.44 15.89 34.2 20.66 32.94 23.18H31.83V29.45H35.13V26H43.14V29.45H46.44V23.18ZM26.76 10.91V16.88H21.99V10.91H18.42V26H21.99V19.7H26.76V26H30.33V10.91H26.76ZM53.67 13.43C55.44 13.43 55.98 14.9 55.98 16.79V17.09H51C51.09 14.69 51.96 13.43 53.67 13.43ZM41.28 23.18H36.24C37.23 20.9 37.5 16.79 37.5 14.18V13.73H41.28V23.18ZM93.873 5.15V26H97.503V7.97H103.983V26H107.613V5.15H93.873ZM113.902 10.91H110.602V30.35H114.172V24.23C115.072 25.58 116.392 26.3 117.922 26.3C121.402 26.3 123.802 23.51 123.802 18.44C123.802 13.4 121.462 10.61 118.102 10.61C116.422 10.61 115.042 11.39 114.082 12.86L113.902 10.91ZM117.022 23.48C115.132 23.48 114.172 21.95 114.172 18.47C114.172 14.96 115.192 13.43 117.202 13.43C119.152 13.43 120.112 14.96 120.112 18.44C120.112 21.95 119.092 23.48 117.022 23.48ZM137.321 15.71C137.321 12.05 135.461 10.67 131.681 10.67C129.311 10.67 127.451 11.42 126.371 12.05V15.02C127.331 14.3 129.431 13.52 131.261 13.52C132.971 13.52 133.751 14.12 133.751 15.74V16.58H133.181C127.721 16.58 125.291 18.38 125.291 21.44C125.291 24.5 127.151 26.21 129.911 26.21C132.011 26.21 132.911 25.52 133.601 24.8H133.751C133.781 25.19 133.901 25.7 134.021 26H137.501C137.381 24.77 137.321 23.54 137.321 22.31V15.71ZM133.751 22.4C133.301 23.06 132.461 23.6 131.201 23.6C129.701 23.6 128.951 22.76 128.951 21.47C128.951 19.76 130.181 19.13 133.241 19.13H133.751V22.4ZM149.041 26H153.091L147.361 17.99L152.401 10.91H148.801L143.761 17.99V10.91H140.191V26H143.761V18.71L149.041 26ZM165.06 13.73V10.91H153.09V13.73H157.29V26H160.86V13.73H165.06ZM167.174 10.91V26H170.354L175.814 16.67V26H179.264V10.91H176.084L170.624 20.24V10.91H167.174ZM191.112 26H195.162L189.432 17.99L194.472 10.91H190.872L185.832 17.99V10.91H182.262V26H185.832V18.71L191.112 26ZM198.303 30.65C201.633 30.65 202.863 28.28 203.883 25.19L208.593 10.91H205.143L201.813 22.25L198.483 10.91H194.733L199.923 26.66C199.533 27.38 198.963 27.83 197.973 27.83C197.313 27.83 196.743 27.62 196.353 27.23V30.14C196.353 30.14 196.893 30.65 198.303 30.65ZM222.817 26H226.297L226.237 10.91H221.347L218.077 20.96L215.137 10.91H209.947V26H212.977V14.72L216.247 26H219.157L222.817 14.72V26Z" fill="white"/>
</svg>
